<svg width="155" height="125" viewBox="0 0 155 125" fill="none" xmlns="http://www.w3.org/2000/svg">
<g clip-path="url(#clip0)">
<path d="M90.9703 75.2434L79.6108 51.1771H33.6985L15.03 92.0047L19.27 94.9271L12.1506 98.336L0.126709 124.594H24.8073L36.8627 99.6753L46.7667 94.9271L41.0712 90.9902L49.0131 74.594L90.9703 75.2434Z" fill="#005CFF"/>
<path d="M147.387 110.797L153.146 106.82L143.464 102.761L125.997 66.9661C136.882 62.5018 144.761 49.3928 144.761 33.9708C144.761 17.25 135.49 3.24841 123.181 0.0422363H60.3725L48.5386 24.5958H113.372C119.1 24.5958 123.751 30.5616 123.751 37.9074C123.751 45.2533 119.1 51.2193 113.372 51.2193H94.4507L120.365 106.333L126.757 109.133L122.991 111.893L129.004 124.677H154.19L147.387 110.797Z" fill="#005CFF"/>
</g>
<defs>
<clipPath id="clip0">
<rect width="154.412" height="125" fill="white"/>
</clipPath>
</defs>
</svg>
