<svg width="620" height="420" viewBox="0 0 620 420" fill="none" xmlns="http://www.w3.org/2000/svg">
<path d="M365.267 252.818L319.656 171.955H135.307L60.3485 309.136L77.3731 318.955L48.787 330.409L0.508301 418.636H99.6067L148.012 334.909L187.779 318.955L164.91 305.727L196.799 250.636L365.267 252.818Z" fill="#0290EE"/>
<path d="M591.795 372.273L614.918 358.91L576.041 345.273L505.91 225.001C549.615 210.001 581.25 165.955 581.25 114.137C581.25 57.9551 544.025 10.9097 494.603 0.136963H242.41L194.894 82.637H455.217C478.213 82.637 496.889 102.682 496.889 127.364C496.889 152.046 478.213 172.092 455.217 172.092H379.242L483.295 357.273L508.959 366.682L493.84 375.955L517.98 418.91H619.111L591.795 372.273Z" fill="#0290EE"/>
</svg>
