<svg width="804" height="404" viewBox="0 0 804 404" fill="none" xmlns="http://www.w3.org/2000/svg">
<path opacity="0.07" d="M26.9502 381.168C26.9502 171.346 197.044 1.25195 406.866 1.25195C616.688 1.25195 786.782 171.346 786.782 381.168" fill="#141C3A"/>
<path d="M559.504 257.021H538.283C537.908 257.021 537.604 257.326 537.604 257.701V273.802C537.604 278.487 541.402 282.285 546.087 282.285H551.701C556.386 282.285 560.184 278.487 560.184 273.802V257.701C560.183 257.326 559.879 257.021 559.504 257.021Z" fill="#141C3A"/>
<path d="M556.96 279.51C561.749 276.806 569.964 268.826 568.596 263.211C568.23 261.71 567.313 260.58 565.942 259.944C562.769 258.469 558.226 260.25 557.719 260.458L559.231 263.611C560.327 263.165 563.006 262.436 564.267 263.025C564.522 263.144 564.803 263.349 564.953 263.968C565.751 267.24 559.322 274.135 555.014 276.568L556.96 279.51Z" fill="#141C3A"/>
<path d="M403.851 270.209H294.1C292.252 270.209 290.753 268.711 290.753 266.862V203.92C290.753 202.072 292.251 200.574 294.099 200.574H403.85C405.698 200.574 407.196 202.072 407.196 203.92V266.862C407.197 268.71 405.699 270.209 403.851 270.209Z" fill="#FAFAFA"/>
<path d="M362.144 279.284C361.727 278.171 361.55 276.963 361.55 275.756V270.208H349.056H348.475H337.257V275.756C337.257 276.963 337.08 278.171 336.663 279.284C336.083 280.832 334.972 282.551 332.899 282.551H348.474H349.055H365.907C363.835 282.551 362.724 280.832 362.144 279.284Z" fill="#FAFAFA"/>
<path d="M586.362 290.01H237.647C236.477 290.01 235.529 289.062 235.529 287.892V284.634C235.529 283.464 236.477 282.516 237.647 282.516H586.362C587.532 282.516 588.48 283.464 588.48 284.634V287.892C588.481 289.062 587.532 290.01 586.362 290.01Z" fill="#D3D3D3"/>
<path d="M303.913 290.01H295.903V380.044H303.913V290.01Z" fill="#D3D3D3"/>
<path d="M523.047 290.01H515.037V380.044H523.047V290.01Z" fill="#D3D3D3"/>
<path d="M403.851 259.133H294.1C292.252 259.133 290.753 257.635 290.753 255.786V192.844C290.753 190.996 292.251 189.497 294.1 189.497H403.851C405.699 189.497 407.197 190.995 407.197 192.843V255.785C407.197 257.635 405.699 259.133 403.851 259.133Z" fill="#0290EE"/>
<path d="M402.849 193.372H295.264V254.546H402.849V193.372Z" fill="#FAFAFA"/>
<path d="M526.089 270.209H416.339C414.491 270.209 412.992 268.711 412.992 266.862V203.92C412.992 202.072 414.49 200.573 416.339 200.573H526.09C527.938 200.573 529.437 202.071 529.437 203.92V266.862C529.436 268.71 527.938 270.209 526.089 270.209Z" fill="#FAFAFA"/>
<path d="M484.382 279.284C483.965 278.171 483.788 276.963 483.788 275.756V270.208H471.294H470.713H459.495V275.756C459.495 276.963 459.318 278.171 458.901 279.284C458.321 280.832 457.21 282.551 455.137 282.551H470.712H471.293H488.145C486.073 282.551 484.963 280.832 484.382 279.284Z" fill="#FAFAFA"/>
<path d="M526.089 259.133H416.339C414.491 259.133 412.992 257.635 412.992 255.786V192.844C412.992 190.996 414.49 189.497 416.339 189.497H526.09C527.938 189.497 529.437 190.995 529.437 192.844V255.786C529.436 257.635 527.938 259.133 526.089 259.133Z" fill="#0290EE"/>
<path d="M525.087 193.372H417.502V254.546H525.087V193.372Z" fill="#FAFAFA"/>
<path d="M548.316 250.878C549.03 250.622 549.731 250.238 550.339 249.776C550.947 249.318 551.495 248.755 551.776 248.127C552.076 247.496 551.995 246.886 551.665 246.388C551.325 245.884 550.767 245.461 550.158 245.103C549.543 244.745 548.865 244.448 548.168 244.184C547.845 244.066 547.405 243.909 546.993 243.722C546.578 243.543 546.176 243.333 545.775 243.111C544.187 242.205 542.743 240.951 541.59 239.436C540.441 237.921 539.526 236.178 538.979 234.257C538.436 232.337 538.219 230.235 538.607 227.999C538.81 226.883 539.168 225.734 539.763 224.601C540.353 223.473 541.198 222.368 542.289 221.462C543.371 220.548 544.681 219.861 546.01 219.447C547.343 219.028 548.677 218.858 549.936 218.842L551.277 218.825C554.363 218.786 556.896 221.256 556.935 224.342C556.974 227.428 554.504 229.961 551.418 230C550.523 230.011 549.652 229.799 548.897 229.435C548.23 229.11 547.876 228.936 547.45 228.915C547.02 228.88 546.353 229.263 545.868 230.103C545.378 230.927 545.07 232.078 545.025 233.292C544.976 234.51 545.171 235.807 545.646 237.022C546.111 238.244 546.837 239.395 547.797 240.389C548.04 240.633 548.292 240.875 548.563 241.098C548.829 241.326 549.101 241.524 549.476 241.785C550.171 242.286 550.85 242.827 551.477 243.463C552.093 244.101 552.696 244.835 553.015 245.789C553.176 246.259 553.242 246.789 553.16 247.29C553.079 247.792 552.871 248.241 552.614 248.616C552.081 249.362 551.4 249.869 550.708 250.313C550.005 250.749 549.295 251.115 548.538 251.46C548.381 251.531 548.197 251.462 548.125 251.306C548.054 251.149 548.123 250.965 548.28 250.893C548.288 250.89 548.295 250.886 548.303 250.884L548.316 250.878Z" fill="white"/>
<path d="M501.67 246.83H442.585C439.111 246.83 436.295 244.014 436.295 240.541V206.864C436.295 203.39 439.111 200.575 442.585 200.575H501.67C505.144 200.575 507.959 203.391 507.959 206.864V240.541C507.959 244.014 505.143 246.83 501.67 246.83Z" fill="#FAFAFA"/>
<path d="M342.86 281.978C342.86 278.257 345.876 275.241 349.597 275.241C353.318 275.241 356.334 278.257 356.334 281.978" fill="#0B4870"/>
<path d="M290.56 225.419C290.56 225.419 295.034 223.28 296.998 222.16C298.962 221.043 304.013 219.506 304.421 219.142C304.828 218.776 319.395 217.878 320.279 217.117C321.162 216.356 322.021 218.903 318.246 219.73C314.471 220.557 309.218 222.579 308.93 224.055C308.643 225.531 312.808 225.88 313.23 227.095C313.652 228.31 313.112 228.039 312.515 228.298C311.917 228.559 307.56 226.146 305.644 226.832C303.728 227.518 300.799 226.569 299.33 227.071C297.862 227.573 290.721 229.976 290.721 229.976L290.56 225.419Z" fill="#FAB9AF"/>
<path d="M298.634 228.578L300.938 227.726C300.938 227.726 298.064 220.981 296.81 221.144C295.364 221.334 293.562 221.81 293.562 221.81L298.634 228.578Z" fill="#EAD8CF"/>
<path d="M299.161 229.744C298.866 229.524 294.262 220.691 294.262 220.691L284.425 222.025L289.741 232.488L299.161 229.744Z" fill="#48C774"/>
<path d="M327.498 266.685C327.498 266.685 332.533 267.141 334.838 267.186C337.142 267.23 342.369 268.517 342.916 268.409C343.465 268.303 356.698 275.111 357.87 274.901C359.041 274.695 358.466 277.377 354.726 276.133C350.986 274.888 345.329 273.922 344.307 275.065C343.287 276.209 346.755 278.687 346.49 279.97C346.227 281.258 345.897 280.737 345.238 280.654C344.577 280.569 342.017 276.184 339.981 275.785C337.946 275.388 335.872 273.028 334.325 272.704C332.777 272.379 325.265 270.76 325.265 270.76L327.498 266.685Z" fill="#FAB9AF"/>
<path d="M264.765 159.295C264.765 159.295 276.044 155.082 281.245 163.669C286.445 172.254 285.945 189.44 280.258 191.555C274.574 193.668 266.033 192.563 263.123 187.191C260.213 181.819 257.584 174.054 257.711 168.863C257.837 163.671 261.804 160.793 264.765 159.295Z" fill="#FAB9AF"/>
<path d="M279.035 191.947C279.035 191.947 278.124 200.042 278.9 201.545C279.676 203.043 264.821 201.545 264.821 201.545C264.821 201.545 263.48 189.874 261.112 182.977C258.743 176.086 279.035 191.947 279.035 191.947Z" fill="#FAB9AF"/>
<path d="M261.112 182.977C261.112 182.977 261.658 191.666 265.994 190.986C270.329 190.308 276.133 177.603 277.943 176.971C279.753 176.337 279.77 175.273 279.77 175.273L280.903 176.929L282.825 177.051C282.825 177.051 281.072 171.891 283.717 169.786C286.363 167.683 280.971 153.085 267.069 157.945C267.069 157.945 256.39 160.889 256.778 166.961C257.167 173.036 258.723 179.955 261.112 182.977Z" fill="#0B4870"/>
<path d="M280.662 203.351C280.662 203.351 280.613 200.487 279.314 200.209C278.015 199.936 264.973 198.682 263.379 199.309V202.649C263.379 202.649 266.452 204.539 280.662 203.351Z" fill="#E2D2CA"/>
<path d="M279.483 173.066C279.24 172.046 276.649 169.136 275.658 172.254C274.666 175.369 277.157 179.563 278.546 179.202C279.935 178.845 280.1 175.649 279.483 173.066Z" fill="#EEA886"/>
<path d="M298.416 312.733C298.416 312.733 300.19 325.396 299.442 327.641C298.694 329.886 291.956 340.367 291.956 340.367L284.47 372.557H275.487L274.738 335.127L270.995 371.06L263.509 370.311L254.526 335.127C254.526 335.127 238.684 334.274 241.739 309.997C244.793 285.72 298.416 312.733 298.416 312.733Z" fill="#0B4870"/>
<path d="M241.672 310.381C241.672 310.381 248.588 312.418 260.384 313.718C272.179 315.018 301.649 313.25 301.835 311.857C302.022 310.462 295.496 259.966 295.868 257.366C296.239 254.766 296.438 245.5 296.438 245.5C296.584 248.039 299.17 258.41 302.293 264.062C303.42 266.104 306.721 270.7 309.028 271.049C321.9 272.994 335.256 273.967 336.124 273.743C335.395 273.426 336.931 265.777 336.124 265.508C335.418 265.271 326.392 264.011 319.655 262.514C317.179 261.964 311.233 247.887 311.233 247.887C310.118 245.379 306.059 229.583 304.798 224.116C301.952 211.787 302.39 211.275 302.39 211.275C293.762 208.665 280.664 203.351 280.664 203.351L263.381 202.649C263.381 202.649 247.519 206.14 241.273 208.96C240.68 209.228 240.678 223.111 239.052 226.751L244.231 237.677C244.231 237.677 247.222 259.32 247.843 268.946C248.127 273.365 241.672 310.381 241.672 310.381Z" fill="#0290EE"/>
<path d="M238.332 244.776C238.783 246.232 240.833 247.462 242.163 248.001C243.016 248.345 243.969 248.457 244.931 248.279L245.608 248.155V248.153L257.452 245.955C257.452 245.955 260.043 216.11 241.272 208.96C240.775 209.123 234.187 231.413 238.332 244.776Z" fill="#0290EE"/>
<path d="M261.554 160.307C261.554 160.307 247.362 161.746 261.301 183.292L261.554 160.307Z" fill="#0B4870"/>
<path d="M282.972 375.553C282.972 375.553 285.966 375.553 286.715 377.05C287.464 378.547 287.464 380.044 287.464 380.044H274.738L275.487 375.552H276.984H282.972V375.553Z" fill="#0B4870"/>
<path d="M349 220.15C349.742 220.15 350.467 220.374 351.084 220.793C351.701 221.212 352.182 221.808 352.466 222.505C352.749 223.202 352.824 223.969 352.679 224.708C352.534 225.448 352.177 226.128 351.653 226.661C351.128 227.195 350.46 227.558 349.732 227.705C349.005 227.852 348.251 227.777 347.565 227.488C346.88 227.199 346.294 226.71 345.882 226.083C345.47 225.456 345.25 224.719 345.25 223.964C345.25 222.953 345.645 221.983 346.348 221.267C347.052 220.552 348.006 220.15 349 220.15" fill="#61DAFB"/>
<path d="M362.533 217.317C362.086 217.161 361.635 217.016 361.181 216.883C361.256 216.572 361.325 216.259 361.389 215.946C362.413 210.893 361.744 206.823 359.459 205.484C357.268 204.199 353.684 205.538 350.065 208.741C349.709 209.057 349.36 209.383 349.02 209.717C348.792 209.495 348.56 209.277 348.324 209.063C344.531 205.639 340.729 204.196 338.446 205.539C336.257 206.828 335.609 210.654 336.53 215.442C336.622 215.916 336.726 216.388 336.841 216.857C336.303 217.012 335.783 217.178 335.286 217.354C330.84 218.93 328 221.401 328 223.964C328 226.611 331.048 229.266 335.68 230.876C336.056 231.006 336.434 231.126 336.816 231.237C336.692 231.742 336.582 232.25 336.486 232.762C335.607 237.466 336.293 241.202 338.477 242.482C340.731 243.805 344.516 242.446 348.201 239.17C348.492 238.911 348.784 238.637 349.078 238.348C349.446 238.71 349.825 239.061 350.213 239.402C353.782 242.525 357.308 243.787 359.489 242.503C361.742 241.176 362.474 237.163 361.523 232.281C361.451 231.908 361.367 231.527 361.271 231.139C361.537 231.059 361.798 230.977 362.052 230.891C366.867 229.269 370 226.646 370 223.964C370 221.392 367.069 218.905 362.533 217.317ZM351.243 210.118C354.344 207.373 357.242 206.29 358.562 207.064C359.969 207.889 360.516 211.215 359.632 215.577C359.574 215.862 359.511 216.145 359.443 216.426C357.593 216 355.717 215.699 353.828 215.524C352.745 213.943 351.559 212.437 350.277 211.018C350.592 210.71 350.914 210.41 351.243 210.118ZM340.401 226.153C340.781 226.899 341.178 227.636 341.592 228.363C342.014 229.105 342.454 229.836 342.911 230.557C341.61 230.413 340.319 230.202 339.04 229.924C339.411 228.706 339.868 227.44 340.401 226.153ZM340.399 221.862C339.877 220.602 339.43 219.363 339.065 218.166C340.263 217.894 341.541 217.671 342.872 217.502C342.427 218.208 341.997 218.926 341.585 219.653C341.173 220.38 340.777 221.116 340.399 221.862ZM341.353 224.008C341.906 222.838 342.501 221.69 343.139 220.565V220.565C343.777 219.44 344.456 218.341 345.176 217.268C346.425 217.172 347.706 217.122 349 217.122C350.301 217.122 351.583 217.172 352.832 217.269C353.544 218.34 354.219 219.435 354.855 220.555C355.495 221.677 356.099 222.819 356.666 223.982C356.105 225.156 355.503 226.308 354.861 227.439H354.861C354.225 228.563 353.553 229.665 352.846 230.745C351.6 230.836 350.312 230.882 349 230.882C347.693 230.882 346.422 230.841 345.197 230.76C344.472 229.683 343.788 228.58 343.145 227.449C342.505 226.326 341.908 225.178 341.353 224.008H341.353ZM356.415 228.351C356.838 227.606 357.244 226.851 357.633 226.088C358.167 227.314 358.638 228.568 359.044 229.845C357.75 230.14 356.443 230.367 355.126 230.524C355.57 229.808 356 229.084 356.415 228.351H356.415ZM357.616 221.863C357.228 221.114 356.825 220.374 356.408 219.641C355.998 218.92 355.572 218.208 355.131 217.505C356.471 217.677 357.755 217.906 358.961 218.186C358.574 219.434 358.125 220.661 357.616 221.863H357.616ZM349.02 212.323C349.894 213.292 350.719 214.304 351.492 215.357C349.838 215.278 348.183 215.278 346.528 215.356C347.344 214.262 348.18 213.245 349.02 212.323ZM339.345 207.119C340.75 206.291 343.857 207.471 347.132 210.428C347.341 210.617 347.552 210.815 347.762 211.019C346.473 212.438 345.278 213.942 344.184 215.522C342.299 215.694 340.427 215.99 338.58 216.408C338.473 215.971 338.377 215.533 338.291 215.092V215.092C337.502 210.989 338.026 207.895 339.345 207.119ZM337.297 229.479C336.949 229.378 336.603 229.268 336.26 229.149C334.482 228.58 332.821 227.683 331.362 226.503C330.944 226.211 330.589 225.835 330.319 225.399C330.05 224.962 329.871 224.474 329.794 223.964C329.794 222.409 332.074 220.425 335.877 219.077C336.354 218.908 336.836 218.754 337.323 218.614C337.887 220.456 338.571 222.258 339.37 224.008C338.561 225.784 337.869 227.611 337.297 229.479V229.479ZM347.02 237.796C345.647 239.079 344.053 240.093 342.319 240.789H342.319C341.861 241.012 341.364 241.137 340.857 241.156C340.351 241.175 339.846 241.089 339.373 240.902C338.048 240.125 337.498 237.125 338.249 233.102C338.338 232.626 338.44 232.154 338.555 231.684C340.421 232.091 342.312 232.37 344.215 232.517C345.318 234.106 346.523 235.619 347.821 237.047C347.56 237.303 347.293 237.553 347.02 237.796ZM349.07 235.734C348.219 234.801 347.371 233.769 346.543 232.658C347.347 232.691 348.166 232.707 349 232.707C349.856 232.707 350.701 232.688 351.535 232.65C350.766 233.72 349.943 234.749 349.07 235.734V235.734ZM359.965 238.272C359.926 238.786 359.784 239.287 359.548 239.743C359.311 240.199 358.985 240.601 358.59 240.924C357.266 241.703 354.436 240.69 351.383 238.019C351.033 237.713 350.681 237.386 350.327 237.04C351.6 235.607 352.776 234.088 353.848 232.494C355.762 232.33 357.662 232.032 359.536 231.602C359.621 231.954 359.697 232.298 359.763 232.635C360.17 234.486 360.239 236.397 359.965 238.272V238.272ZM361.488 229.159H361.488C361.259 229.237 361.023 229.311 360.783 229.384C360.195 227.533 359.485 225.725 358.656 223.973C359.454 222.244 360.136 220.463 360.7 218.641C361.13 218.768 361.547 218.901 361.949 219.042C365.835 220.402 368.206 222.414 368.206 223.964C368.206 225.615 365.645 227.759 361.488 229.159V229.159Z" fill="#61DAFB"/>
<path d="M792.022 404H11.978C5.363 404 0 398.637 0 392.022C0 385.407 5.363 380.044 11.978 380.044H792.023C798.638 380.044 804.001 385.407 804.001 392.022C804 398.637 798.637 404 792.022 404Z" fill="#D3D3D3"/>
<path d="M335.374 276.737H273.24V282.726H335.374V276.737Z" fill="#0B4870"/>
<path d="M279.358 317.08H260.507C247.348 317.08 236.681 305.573 236.681 291.378L242.64 239.883C244.688 226.157 257.392 217.343 270.28 217.343C283.31 217.343 296.09 226.375 297.977 240.282L303.184 291.377C303.184 305.573 292.517 317.08 279.358 317.08Z" fill="#141C3A"/>
<path d="M273.315 380.044H266.789C265.301 380.044 264.095 378.838 264.095 377.35V262.808C264.095 261.32 265.301 260.113 266.789 260.113H273.315C274.803 260.113 276.009 261.319 276.009 262.808V377.349C276.009 378.837 274.803 380.044 273.315 380.044Z" fill="#0290EE"/>
<path d="M275.222 266.488H264.327C261.444 266.488 259.106 264.151 259.106 261.267V258.962C259.106 256.079 261.443 253.741 264.327 253.741H275.222C278.105 253.741 280.443 256.078 280.443 258.962V261.267C280.443 264.151 278.105 266.488 275.222 266.488Z" fill="#0290EE"/>
<path d="M296.8 342.615H243.691C241.405 342.615 239.553 340.762 239.553 338.477V331.033C239.553 328.747 241.406 326.895 243.691 326.895H296.8C299.085 326.895 300.938 328.748 300.938 331.033V338.477C300.939 340.762 299.086 342.615 296.8 342.615Z" fill="#141C3A"/>
<path opacity="0.29" d="M409.868 80.2756C414.15 80.2756 417.622 76.804 417.622 72.5216C417.622 68.2392 414.15 64.7676 409.868 64.7676C405.585 64.7676 402.114 68.2392 402.114 72.5216C402.114 76.804 405.585 80.2756 409.868 80.2756Z" fill="#141C3A"/>
<path d="M409.868 43.9053C394.064 43.9053 381.252 56.7173 381.252 72.5213H438.484C438.484 56.7173 425.673 43.9053 409.868 43.9053Z" fill="#141C3A"/>
<path d="M411.079 0.985352H408.657V43.9054H411.079V0.985352Z" fill="#0B4870"/>
<path d="M495 206.121C494.08 207.344 493.337 208.666 492.527 209.95C485.456 221.162 478.398 232.381 471.336 243.599C470.999 244.134 471.001 244.134 470.664 243.599C462.89 231.251 455.118 218.905 447.341 206.561C447.244 206.407 447.186 206.219 447 206.121C447 206.084 447 206.047 447 206.011C450.203 206.017 453.408 206.024 456.612 206.031C457.009 206.668 457.402 207.307 457.802 207.942C460.044 211.503 462.287 215.062 464.528 218.622C466.6 221.912 468.672 225.202 470.737 228.495C470.933 228.809 471.066 228.809 471.26 228.495C471.991 227.315 472.737 226.141 473.477 224.964C475.9 221.118 478.323 217.273 480.743 213.426C482.293 210.963 483.837 208.495 485.385 206.029C488.589 206.024 491.793 206.017 494.996 206.01C495 206.048 495 206.084 495 206.121Z" fill="#48C774"/>
<path d="M456.613 206.029C459.451 206.023 462.287 206.023 465.125 206.001C465.489 205.998 465.596 206.191 465.738 206.417C467.366 209.004 468.997 211.59 470.629 214.177C470.736 214.346 470.85 214.509 470.967 214.682C471.206 214.546 471.265 214.343 471.372 214.176C472.995 211.607 474.622 209.039 476.227 206.461C476.429 206.138 476.631 205.995 477.057 206C479.834 206.027 482.612 206.023 485.389 206.03C483.841 208.496 482.297 210.962 480.747 213.427C478.327 217.275 475.903 221.12 473.482 224.965C472.741 226.141 471.996 227.315 471.264 228.496C471.069 228.809 470.937 228.809 470.741 228.496C468.675 225.202 466.603 221.913 464.533 218.623C462.291 215.062 460.047 211.504 457.806 207.943C457.404 207.305 457.009 206.667 456.613 206.029Z" fill="#0B4870"/>
<path d="M282.654 372.559L282.223 375.553H276.235V372.559H282.654Z" fill="#FAB9AF"/>
<path d="M666.328 374.928C666.328 377.637 664.132 379.832 661.424 379.832H642.507C639.798 379.832 637.603 377.636 637.603 374.928V330.788C637.603 328.079 639.799 325.884 642.507 325.884H661.424C664.133 325.884 666.328 328.08 666.328 330.788V374.928Z" fill="#141C3A"/>
<path d="M654.234 275.074C654.234 275.074 638.748 306.553 661.565 311.914C684.382 317.275 685.04 293.53 682.702 283.744C680.364 273.958 716.571 247.65 686.709 224.375C656.847 201.101 633.574 263.067 654.234 275.074Z" fill="#48C774"/>
<path d="M625.398 292.163C625.398 292.163 624.669 312.878 638.265 310.246C651.861 307.614 646.469 294.656 642.841 289.947C639.213 285.238 652.362 262.296 630.633 256.978C608.905 251.659 611.356 290.69 625.398 292.163Z" fill="#48C774"/>
<path d="M627.717 272.635L644.532 325.883" stroke="#4D4D4D" stroke-miterlimit="10"/>
<path d="M637.526 283.479L633.964 292.419L625.848 287.948" stroke="#4D4D4D" stroke-miterlimit="10"/>
<path d="M672.472 242.508L658.047 325.883" stroke="#4D4D4D" stroke-miterlimit="10"/>
<path d="M680.934 255.119L668.984 262.667L661.317 252.317" stroke="#4D4D4D" stroke-miterlimit="10"/>
<path d="M677.665 272.604L665.714 280.151L658.047 269.801" stroke="#4D4D4D" stroke-miterlimit="10"/>
<path d="M172.999 374.928C172.999 377.637 170.803 379.832 168.095 379.832H149.178C146.469 379.832 144.274 377.636 144.274 374.928V330.788C144.274 328.079 146.47 325.884 149.178 325.884H168.095C170.804 325.884 172.999 328.08 172.999 330.788V374.928Z" fill="#141C3A"/>
<path d="M160.904 275.074C160.904 275.074 145.418 306.553 168.235 311.914C191.052 317.275 191.71 293.53 189.372 283.744C187.034 273.958 223.241 247.65 193.379 224.375C163.517 201.101 140.244 263.067 160.904 275.074Z" fill="#48C774"/>
<path d="M132.068 292.163C132.068 292.163 131.339 312.878 144.935 310.246C158.531 307.614 153.139 294.656 149.511 289.947C145.882 285.238 159.031 262.296 137.303 256.978C115.575 251.66 118.027 290.69 132.068 292.163Z" fill="#48C774"/>
<path d="M134.387 272.635L151.202 325.883" stroke="#4D4D4D" stroke-miterlimit="10"/>
<path d="M144.196 283.479L140.635 292.419L132.519 287.948" stroke="#4D4D4D" stroke-miterlimit="10"/>
<path d="M179.142 242.508L164.717 325.883" stroke="#4D4D4D" stroke-miterlimit="10"/>
<path d="M187.605 255.119L175.654 262.667L167.987 252.317" stroke="#4D4D4D" stroke-miterlimit="10"/>
<path d="M184.335 272.604L172.385 280.151L164.717 269.801" stroke="#4D4D4D" stroke-miterlimit="10"/>
</svg>
