<svg width="480" height="240" viewBox="0 0 480 240" fill="none" xmlns="http://www.w3.org/2000/svg">
<g clip-path="url(#clip0)">
<path opacity="0.07" d="M16.0897 226.436C16.0897 101.79 117.638 0.743713 242.905 0.743713C368.172 0.743713 469.721 101.79 469.721 226.436" fill="#141C3A"/>
<path d="M334.032 152.686H321.363C321.139 152.686 320.958 152.867 320.958 153.09V162.655C320.958 165.438 323.225 167.694 326.022 167.694H329.374C332.171 167.694 334.438 165.438 334.438 162.655V153.09C334.438 152.867 334.256 152.686 334.032 152.686Z" fill="#141C3A"/>
<path d="M332.513 166.046C335.373 164.439 340.277 159.699 339.46 156.363C339.242 155.471 338.694 154.8 337.876 154.422C335.981 153.546 333.269 154.604 332.967 154.728L333.869 156.601C334.524 156.336 336.123 155.903 336.876 156.252C337.028 156.323 337.196 156.445 337.285 156.813C337.762 158.756 333.924 162.852 331.352 164.298L332.513 166.046Z" fill="#141C3A"/>
<path d="M241.105 160.52H175.582C174.479 160.52 173.584 159.63 173.584 158.532V121.141C173.584 120.043 174.478 119.153 175.581 119.153H241.104C242.208 119.153 243.102 120.043 243.102 121.141V158.532C243.103 159.63 242.208 160.52 241.105 160.52Z" fill="#FAFAFA"/>
<path d="M216.205 165.911C215.956 165.25 215.851 164.533 215.851 163.816V160.52H208.392H208.045H201.347V163.816C201.347 164.533 201.242 165.25 200.993 165.911C200.647 166.831 199.983 167.852 198.746 167.852H208.044H208.391H218.452C217.215 167.852 216.552 166.831 216.205 165.911Z" fill="#FAFAFA"/>
<path d="M350.067 172.283H141.879C141.18 172.283 140.614 171.72 140.614 171.025V169.09C140.614 168.394 141.18 167.831 141.879 167.831H350.067C350.765 167.831 351.331 168.394 351.331 169.09V171.025C351.332 171.72 350.765 172.283 350.067 172.283Z" fill="#D3D3D3"/>
<path d="M181.441 172.283H176.658V225.769H181.441V172.283Z" fill="#D3D3D3"/>
<path d="M312.267 172.283H307.485V225.769H312.267V172.283Z" fill="#D3D3D3"/>
<path d="M241.105 153.94H175.582C174.479 153.94 173.584 153.05 173.584 151.952V114.561C173.584 113.463 174.478 112.572 175.582 112.572H241.105C242.208 112.572 243.103 113.462 243.103 114.56V151.951C243.103 153.05 242.208 153.94 241.105 153.94Z" fill="#005CFF"/>
<path d="M240.507 114.874H176.277V151.215H240.507V114.874Z" fill="#FAFAFA"/>
<path d="M314.083 160.52H248.561C247.457 160.52 246.562 159.63 246.562 158.532V121.141C246.562 120.043 247.457 119.152 248.561 119.152H314.084C315.187 119.152 316.082 120.042 316.082 121.141V158.532C316.081 159.63 315.187 160.52 314.083 160.52Z" fill="#FAFAFA"/>
<path d="M289.183 165.911C288.934 165.25 288.829 164.533 288.829 163.816V160.52H281.37H281.023H274.325V163.816C274.325 164.533 274.22 165.25 273.971 165.911C273.625 166.831 272.961 167.852 271.724 167.852H281.022H281.369H291.43C290.193 167.852 289.53 166.831 289.183 165.911Z" fill="#FAFAFA"/>
<path d="M314.083 153.94H248.561C247.457 153.94 246.562 153.05 246.562 151.952V114.561C246.562 113.463 247.457 112.572 248.561 112.572H314.084C315.187 112.572 316.082 113.462 316.082 114.561V151.952C316.081 153.05 315.187 153.94 314.083 153.94Z" fill="#005CFF"/>
<path d="M313.485 114.874H249.255V151.215H313.485V114.874Z" fill="#FAFAFA"/>
<path d="M327.353 149.036C327.779 148.884 328.198 148.656 328.561 148.382C328.924 148.11 329.251 147.775 329.418 147.402C329.598 147.027 329.549 146.665 329.352 146.369C329.149 146.07 328.816 145.818 328.453 145.606C328.085 145.393 327.681 145.217 327.264 145.06C327.072 144.99 326.809 144.896 326.563 144.785C326.315 144.679 326.075 144.554 325.836 144.422C324.888 143.884 324.026 143.139 323.337 142.239C322.651 141.339 322.105 140.304 321.779 139.163C321.454 138.022 321.325 136.773 321.556 135.445C321.678 134.782 321.891 134.099 322.247 133.426C322.599 132.756 323.103 132.1 323.755 131.562C324.401 131.019 325.183 130.61 325.976 130.365C326.772 130.116 327.568 130.015 328.32 130.005L329.121 129.995C330.963 129.972 332.475 131.439 332.498 133.272C332.522 135.106 331.047 136.61 329.205 136.634C328.67 136.64 328.15 136.514 327.7 136.298C327.301 136.105 327.09 136.002 326.836 135.989C326.579 135.968 326.181 136.196 325.891 136.695C325.599 137.184 325.415 137.868 325.388 138.589C325.359 139.313 325.475 140.083 325.759 140.805C326.036 141.531 326.47 142.215 327.043 142.805C327.188 142.95 327.338 143.094 327.5 143.227C327.659 143.362 327.821 143.48 328.045 143.635C328.46 143.932 328.866 144.254 329.24 144.631C329.608 145.01 329.968 145.447 330.158 146.013C330.254 146.292 330.294 146.607 330.245 146.905C330.196 147.203 330.072 147.47 329.919 147.693C329.601 148.136 329.194 148.437 328.781 148.701C328.361 148.96 327.937 149.177 327.485 149.382C327.392 149.424 327.282 149.383 327.239 149.291C327.196 149.197 327.238 149.088 327.331 149.045C327.336 149.044 327.34 149.041 327.345 149.04L327.353 149.036Z" fill="white"/>
<path d="M299.504 146.632H264.23C262.156 146.632 260.475 144.959 260.475 142.896V122.889C260.475 120.826 262.156 119.153 264.23 119.153H299.504C301.578 119.153 303.259 120.826 303.259 122.889V142.896C303.259 144.959 301.578 146.632 299.504 146.632Z" fill="#FAFAFA"/>
<path d="M204.693 167.512C204.693 165.301 206.493 163.51 208.715 163.51C210.936 163.51 212.737 165.301 212.737 167.512" fill="#0B4870"/>
<path d="M173.469 133.912C173.469 133.912 176.14 132.642 177.312 131.976C178.485 131.313 181.5 130.4 181.744 130.183C181.987 129.966 190.684 129.432 191.211 128.98C191.738 128.528 192.251 130.041 189.998 130.533C187.744 131.024 184.608 132.225 184.436 133.102C184.264 133.979 186.751 134.186 187.003 134.908C187.255 135.63 186.932 135.469 186.576 135.623C186.219 135.778 183.618 134.344 182.474 134.752C181.33 135.159 179.581 134.595 178.704 134.894C177.828 135.192 173.565 136.619 173.565 136.619L173.469 133.912Z" fill="#FAB9AF"/>
<path d="M178.289 135.789L179.665 135.283C179.665 135.283 177.949 131.276 177.2 131.373C176.337 131.486 175.261 131.768 175.261 131.768L178.289 135.789Z" fill="#EAD8CF"/>
<path d="M178.604 136.482C178.427 136.351 175.679 131.104 175.679 131.104L169.806 131.896L172.98 138.112L178.604 136.482Z" fill="#48C774"/>
<path d="M195.521 158.427C195.521 158.427 198.527 158.698 199.903 158.724C201.279 158.751 204.399 159.515 204.726 159.451C205.054 159.388 212.954 163.432 213.654 163.308C214.353 163.185 214.009 164.778 211.777 164.039C209.544 163.3 206.166 162.726 205.556 163.405C204.947 164.085 207.018 165.557 206.86 166.319C206.703 167.084 206.506 166.774 206.112 166.725C205.718 166.675 204.189 164.07 202.974 163.833C201.759 163.597 200.521 162.195 199.597 162.002C198.673 161.809 194.188 160.848 194.188 160.848L195.521 158.427Z" fill="#FAB9AF"/>
<path d="M158.069 94.6307C158.069 94.6307 164.802 92.1279 167.908 97.2291C171.012 102.329 170.713 112.539 167.318 113.795C163.925 115.05 158.826 114.394 157.088 111.203C155.351 108.011 153.782 103.398 153.857 100.315C153.933 97.2303 156.301 95.5206 158.069 94.6307Z" fill="#FAB9AF"/>
<path d="M166.588 114.028C166.588 114.028 166.044 118.837 166.508 119.73C166.971 120.62 158.102 119.73 158.102 119.73C158.102 119.73 157.302 112.796 155.888 108.699C154.473 104.606 166.588 114.028 166.588 114.028Z" fill="#FAB9AF"/>
<path d="M155.888 108.699C155.888 108.699 156.214 113.861 158.802 113.457C161.39 113.054 164.856 105.507 165.936 105.131C167.017 104.755 167.027 104.123 167.027 104.123L167.703 105.106L168.851 105.179C168.851 105.179 167.804 102.113 169.383 100.863C170.963 99.6136 167.744 90.9416 159.444 93.8287C159.444 93.8287 153.069 95.5776 153.3 99.1847C153.533 102.794 154.462 106.904 155.888 108.699Z" fill="#0B4870"/>
<path d="M167.559 120.803C167.559 120.803 167.53 119.101 166.755 118.936C165.979 118.774 158.193 118.029 157.241 118.401V120.386C157.241 120.386 159.076 121.508 167.559 120.803Z" fill="#E2D2CA"/>
<path d="M166.856 102.811C166.71 102.206 165.164 100.477 164.572 102.329C163.98 104.18 165.467 106.671 166.296 106.457C167.125 106.245 167.224 104.346 166.856 102.811Z" fill="#EEA886"/>
<path d="M178.159 185.782C178.159 185.782 179.218 193.305 178.771 194.638C178.325 195.972 174.302 202.198 174.302 202.198L169.833 221.321H164.47L164.023 199.085L161.788 220.432L157.319 219.987L151.956 199.085C151.956 199.085 142.498 198.579 144.322 184.157C146.145 169.735 178.159 185.782 178.159 185.782Z" fill="#0B4870"/>
<path d="M144.282 184.385C144.282 184.385 148.411 185.595 155.453 186.367C162.495 187.139 180.089 186.089 180.2 185.262C180.312 184.433 176.416 154.435 176.638 152.891C176.859 151.346 176.978 145.842 176.978 145.842C177.065 147.35 178.609 153.511 180.473 156.869C181.146 158.082 183.117 160.812 184.494 161.019C192.179 162.175 200.153 162.753 200.671 162.62C200.236 162.431 201.153 157.887 200.671 157.728C200.25 157.587 194.861 156.838 190.839 155.949C189.361 155.622 185.811 147.26 185.811 147.26C185.145 145.77 182.722 136.386 181.969 133.138C180.27 125.814 180.531 125.51 180.531 125.51C175.38 123.959 167.561 120.803 167.561 120.803L157.242 120.386C157.242 120.386 147.773 122.459 144.044 124.135C143.69 124.294 143.688 132.541 142.718 134.704L145.81 141.194C145.81 141.194 147.595 154.052 147.966 159.77C148.136 162.395 144.282 184.385 144.282 184.385Z" fill="#005CFF"/>
<path d="M142.288 145.411C142.557 146.276 143.781 147.007 144.575 147.327C145.084 147.532 145.653 147.598 146.227 147.492L146.632 147.419V147.418L153.703 146.112C153.703 146.112 155.25 128.382 144.043 124.135C143.746 124.231 139.813 137.473 142.288 145.411Z" fill="#005CFF"/>
<path d="M156.152 95.2319C156.152 95.2319 147.679 96.0867 156.001 108.886L156.152 95.2319Z" fill="#0B4870"/>
<path d="M168.939 223.101C168.939 223.101 170.726 223.101 171.173 223.99C171.62 224.879 171.62 225.769 171.62 225.769H164.023L164.47 223.1H165.364H168.939V223.101Z" fill="#0B4870"/>
<path d="M208.358 130.782C208.801 130.782 209.234 130.915 209.602 131.164C209.971 131.413 210.258 131.767 210.427 132.181C210.596 132.595 210.641 133.051 210.555 133.49C210.468 133.929 210.255 134.333 209.942 134.65C209.629 134.967 209.23 135.183 208.795 135.27C208.361 135.358 207.911 135.313 207.501 135.141C207.093 134.97 206.743 134.679 206.497 134.307C206.251 133.934 206.119 133.496 206.119 133.048C206.119 132.447 206.355 131.871 206.775 131.446C207.195 131.021 207.765 130.782 208.358 130.782Z" fill="#61DAFB"/>
<path d="M216.438 129.099C216.171 129.007 215.902 128.92 215.63 128.841C215.675 128.657 215.716 128.471 215.755 128.285C216.366 125.283 215.967 122.865 214.602 122.07C213.294 121.306 211.155 122.102 208.994 124.005C208.782 124.192 208.573 124.386 208.37 124.584C208.234 124.453 208.096 124.323 207.955 124.196C205.69 122.162 203.42 121.305 202.057 122.102C200.75 122.868 200.364 125.141 200.913 127.985C200.968 128.267 201.03 128.547 201.099 128.826C200.778 128.918 200.468 129.017 200.171 129.121C197.516 130.057 195.821 131.525 195.821 133.048C195.821 134.62 197.641 136.198 200.406 137.154C200.63 137.231 200.856 137.303 201.084 137.369C201.01 137.669 200.945 137.97 200.887 138.274C200.362 141.069 200.772 143.288 202.076 144.049C203.422 144.835 205.681 144.027 207.881 142.081C208.055 141.927 208.229 141.765 208.405 141.593C208.625 141.808 208.851 142.016 209.082 142.219C211.213 144.074 213.318 144.824 214.62 144.061C215.965 143.273 216.402 140.889 215.835 137.989C215.792 137.767 215.742 137.541 215.684 137.31C215.843 137.263 215.999 137.214 216.15 137.163C219.025 136.199 220.896 134.641 220.896 133.048C220.896 131.52 219.146 130.043 216.438 129.099ZM209.697 124.823C211.549 123.192 213.279 122.549 214.067 123.008C214.907 123.498 215.233 125.474 214.706 128.066C214.671 128.235 214.633 128.403 214.593 128.57C213.488 128.317 212.368 128.138 211.241 128.034C210.594 127.095 209.886 126.2 209.121 125.357C209.309 125.174 209.501 124.996 209.697 124.823ZM203.225 134.348C203.451 134.792 203.688 135.229 203.936 135.661C204.188 136.102 204.45 136.536 204.723 136.965C203.946 136.879 203.176 136.754 202.412 136.589C202.633 135.865 202.906 135.113 203.225 134.348ZM203.223 131.799C202.912 131.051 202.645 130.315 202.427 129.604C203.142 129.442 203.905 129.31 204.7 129.209C204.434 129.629 204.177 130.055 203.931 130.487C203.685 130.919 203.449 131.356 203.223 131.799ZM203.793 133.074C204.123 132.379 204.478 131.697 204.859 131.029C205.24 130.36 205.645 129.708 206.075 129.07C206.821 129.013 207.586 128.983 208.358 128.983C209.135 128.983 209.9 129.013 210.646 129.071C211.071 129.707 211.474 130.357 211.854 131.023C212.236 131.689 212.596 132.368 212.935 133.059C212.6 133.756 212.241 134.44 211.857 135.112C211.478 135.78 211.076 136.435 210.654 137.076C209.91 137.13 209.142 137.158 208.358 137.158C207.578 137.158 206.819 137.133 206.088 137.085C205.655 136.445 205.247 135.79 204.863 135.118C204.481 134.451 204.124 133.769 203.793 133.074ZM212.785 135.654C213.038 135.212 213.28 134.763 213.512 134.31C213.831 135.038 214.112 135.783 214.355 136.542C213.582 136.717 212.802 136.852 212.016 136.945C212.281 136.52 212.537 136.09 212.785 135.654ZM213.502 131.8C213.27 131.355 213.03 130.915 212.781 130.48C212.536 130.052 212.282 129.629 212.019 129.211C212.819 129.313 213.585 129.449 214.305 129.615C214.074 130.357 213.806 131.086 213.502 131.8ZM208.37 126.133C208.892 126.708 209.385 127.309 209.846 127.935C208.859 127.888 207.87 127.888 206.882 127.934C207.37 127.284 207.869 126.68 208.37 126.133ZM202.594 123.041C203.433 122.549 205.288 123.25 207.243 125.007C207.368 125.119 207.494 125.237 207.619 125.358C206.85 126.201 206.136 127.094 205.483 128.033C204.358 128.135 203.24 128.311 202.137 128.559C202.073 128.3 202.016 128.039 201.965 127.777C201.494 125.34 201.807 123.502 202.594 123.041ZM201.371 136.324C201.164 136.264 200.957 136.199 200.752 136.128C199.691 135.79 198.699 135.257 197.828 134.556C197.579 134.383 197.367 134.159 197.205 133.9C197.045 133.641 196.938 133.351 196.892 133.048C196.892 132.124 198.253 130.946 200.524 130.145C200.808 130.044 201.096 129.953 201.387 129.87C201.724 130.964 202.132 132.034 202.609 133.074C202.126 134.129 201.713 135.214 201.371 136.324ZM207.176 141.265C206.356 142.027 205.405 142.63 204.37 143.043C204.096 143.175 203.799 143.25 203.497 143.261C203.195 143.272 202.893 143.221 202.611 143.11C201.82 142.649 201.491 140.866 201.94 138.476C201.993 138.194 202.054 137.913 202.122 137.634C203.236 137.876 204.365 138.042 205.502 138.129C206.16 139.073 206.879 139.972 207.654 140.82C207.499 140.972 207.339 141.121 207.176 141.265ZM208.4 140.04C207.892 139.486 207.386 138.873 206.891 138.213C207.371 138.232 207.86 138.242 208.358 138.242C208.869 138.242 209.374 138.231 209.872 138.208C209.413 138.844 208.921 139.455 208.4 140.04ZM214.905 141.548C214.881 141.853 214.796 142.151 214.656 142.422C214.514 142.693 214.319 142.931 214.084 143.123C213.293 143.586 211.604 142.984 209.781 141.397C209.572 141.216 209.362 141.021 209.15 140.816C209.91 139.965 210.613 139.062 211.253 138.115C212.395 138.018 213.53 137.841 214.648 137.585C214.699 137.794 214.745 137.999 214.784 138.199C215.027 139.299 215.068 140.434 214.905 141.548ZM215.814 136.134C215.677 136.18 215.536 136.224 215.393 136.268C215.042 135.168 214.618 134.094 214.123 133.053C214.599 132.026 215.007 130.968 215.343 129.886C215.6 129.961 215.849 130.04 216.089 130.124C218.409 130.932 219.825 132.127 219.825 133.048C219.825 134.029 218.296 135.302 215.814 136.134Z" fill="#61DAFB"/>
<path d="M472.849 240H7.15104C3.20179 240 0 236.814 0 232.884C0 228.955 3.20179 225.769 7.15104 225.769H472.85C476.799 225.769 480.001 228.955 480.001 232.884C480 236.814 476.798 240 472.849 240Z" fill="#D3D3D3"/>
<path d="M200.223 164.398H163.128V167.956H200.223V164.398Z" fill="#0B4870"/>
<path d="M166.781 188.364H155.527C147.67 188.364 141.302 181.528 141.302 173.096L144.86 142.505C146.082 134.351 153.667 129.115 161.361 129.115C169.14 129.115 176.77 134.48 177.897 142.742L181.005 173.095C181.005 181.529 174.637 188.364 166.781 188.364Z" fill="#141C3A"/>
<path d="M163.173 225.769H159.277C158.389 225.769 157.669 225.052 157.669 224.168V156.124C157.669 155.24 158.389 154.523 159.277 154.523H163.173C164.062 154.523 164.782 155.239 164.782 156.124V224.168C164.782 225.052 164.062 225.769 163.173 225.769Z" fill="#005CFF"/>
<path d="M164.312 158.31H157.807C156.086 158.31 154.69 156.921 154.69 155.208V153.839C154.69 152.126 156.085 150.737 157.807 150.737H164.312C166.033 150.737 167.429 152.126 167.429 153.839V155.208C167.429 156.921 166.033 158.31 164.312 158.31Z" fill="#005CFF"/>
<path d="M177.194 203.534H145.487C144.122 203.534 143.017 202.433 143.017 201.075V196.653C143.017 195.295 144.123 194.195 145.487 194.195H177.194C178.558 194.195 179.664 195.296 179.664 196.653V201.075C179.665 202.433 178.559 203.534 177.194 203.534Z" fill="#141C3A"/>
<path opacity="0.29" d="M244.697 47.6885C247.254 47.6885 249.327 45.6262 249.327 43.0822C249.327 40.5382 247.254 38.4758 244.697 38.4758C242.14 38.4758 240.068 40.5382 240.068 43.0822C240.068 45.6262 242.14 47.6885 244.697 47.6885Z" fill="#141C3A"/>
<path d="M244.697 26.0824C235.262 26.0824 227.613 33.6935 227.613 43.082H261.782C261.782 33.6935 254.133 26.0824 244.697 26.0824Z" fill="#141C3A"/>
<path d="M245.42 0.585327H243.974V26.0824H245.42V0.585327Z" fill="#0B4870"/>
<path d="M295.522 122.448C294.973 123.175 294.53 123.96 294.046 124.723C289.825 131.383 285.611 138.048 281.395 144.712C281.193 145.03 281.195 145.03 280.993 144.712C276.352 137.377 271.712 130.043 267.069 122.71C267.011 122.618 266.977 122.506 266.866 122.448C266.866 122.426 266.866 122.404 266.866 122.383C268.778 122.386 270.691 122.391 272.604 122.395C272.841 122.773 273.076 123.153 273.315 123.53C274.653 125.645 275.992 127.76 277.33 129.874C278.567 131.829 279.804 133.783 281.037 135.74C281.154 135.926 281.233 135.926 281.349 135.74C281.786 135.039 282.231 134.341 282.673 133.642C284.119 131.357 285.566 129.073 287.011 126.788C287.936 125.325 288.858 123.858 289.782 122.393C291.695 122.391 293.608 122.386 295.52 122.382C295.522 122.405 295.522 122.426 295.522 122.448Z" fill="#12CA93"/>
<path d="M272.605 122.393C274.299 122.39 275.992 122.39 277.687 122.377C277.904 122.375 277.968 122.49 278.053 122.624C279.024 124.161 279.998 125.697 280.973 127.234C281.036 127.334 281.104 127.431 281.174 127.534C281.317 127.453 281.352 127.332 281.416 127.233C282.385 125.707 283.356 124.182 284.315 122.65C284.435 122.458 284.556 122.373 284.81 122.376C286.468 122.392 288.127 122.39 289.784 122.394C288.86 123.859 287.938 125.324 287.013 126.788C285.568 129.074 284.121 131.358 282.676 133.643C282.233 134.341 281.789 135.039 281.352 135.74C281.235 135.926 281.156 135.926 281.039 135.74C279.806 133.783 278.569 131.829 277.333 129.875C275.995 127.76 274.655 125.646 273.317 123.53C273.077 123.151 272.841 122.772 272.605 122.393Z" fill="#0B4870"/>
<path d="M168.749 221.322L168.491 223.101H164.916V221.322H168.749Z" fill="#FAB9AF"/>
<path d="M397.808 222.729C397.808 224.339 396.497 225.643 394.88 225.643H383.586C381.969 225.643 380.659 224.338 380.659 222.729V196.508C380.659 194.898 381.97 193.594 383.586 193.594H394.88C396.497 193.594 397.808 194.899 397.808 196.508V222.729Z" fill="#141C3A"/>
<path d="M390.587 163.41C390.587 163.41 381.342 182.111 394.964 185.295C408.586 188.48 408.979 174.374 407.583 168.561C406.187 162.747 427.804 147.119 409.975 133.292C392.147 119.466 378.253 156.277 390.587 163.41Z" fill="#12CA93"/>
<path d="M373.372 173.562C373.372 173.562 372.937 185.868 381.054 184.305C389.171 182.741 385.952 175.043 383.786 172.246C381.62 169.448 389.47 155.819 376.497 152.66C363.525 149.5 364.989 172.687 373.372 173.562Z" fill="#12CA93"/>
<path d="M374.756 161.961L384.795 193.594" stroke="#4D4D4D" stroke-miterlimit="10"/>
<path d="M380.613 168.403L378.486 173.714L373.641 171.058" stroke="#4D4D4D" stroke-miterlimit="10"/>
<path d="M401.476 144.064L392.864 193.594" stroke="#4D4D4D" stroke-miterlimit="10"/>
<path d="M406.528 151.556L399.393 156.04L394.816 149.891" stroke="#4D4D4D" stroke-miterlimit="10"/>
<path d="M404.576 161.943L397.441 166.426L392.864 160.278" stroke="#4D4D4D" stroke-miterlimit="10"/>
<path d="M103.283 222.729C103.283 224.339 101.972 225.643 100.355 225.643H89.0614C87.4441 225.643 86.1337 224.338 86.1337 222.729V196.508C86.1337 194.898 87.4447 193.594 89.0614 193.594H100.355C101.972 193.594 103.283 194.899 103.283 196.508V222.729Z" fill="#141C3A"/>
<path d="M96.062 163.41C96.062 163.41 86.8167 182.111 100.439 185.295C114.061 188.48 114.454 174.374 113.058 168.561C111.662 162.747 133.278 147.119 115.45 133.292C97.622 119.466 83.7277 156.277 96.062 163.41Z" fill="#12CA93"/>
<path d="M78.8466 173.562C78.8466 173.562 78.4114 185.868 86.5284 184.305C94.6454 182.741 91.4263 175.043 89.2604 172.246C87.0938 169.448 94.944 155.819 81.972 152.66C69.0001 149.501 70.4639 172.687 78.8466 173.562Z" fill="#12CA93"/>
<path d="M80.2311 161.961L90.2699 193.594" stroke="#4D4D4D" stroke-miterlimit="10"/>
<path d="M86.0872 168.403L83.9612 173.714L79.1158 171.058" stroke="#4D4D4D" stroke-miterlimit="10"/>
<path d="M106.95 144.064L98.3385 193.594" stroke="#4D4D4D" stroke-miterlimit="10"/>
<path d="M112.003 151.556L104.868 156.04L100.291 149.891" stroke="#4D4D4D" stroke-miterlimit="10"/>
<path d="M110.051 161.943L102.916 166.426L98.3385 160.278" stroke="#4D4D4D" stroke-miterlimit="10"/>
</g>
<defs>
<clipPath id="clip0">
<rect width="480" height="240" fill="white"/>
</clipPath>
</defs>
</svg>
